<svg xmlns="http://www.w3.org/2000/svg" viewBox="0 0 82.65 24.07"><title>arkcon-logo-lg-white_1</title><g id="Layer_2" data-name="Layer 2"><g id="Layer_1-2" data-name="Layer 1"><path d="M6.16,10.25v3.61H5v3.26h-4V8.41A5.45,5.45,0,0,1,2.4,4.49a5,5,0,0,1,3.77-1.4A4.37,4.37,0,0,1,9.63,4.36a5.76,5.76,0,0,1,1.12,3.91v8.85h-4V8.54a2.42,2.42,0,0,0-.18-1.11A.71.71,0,0,0,6,7.12C5.33,7.12,5,7.6,5,8.54v1.71Z" transform="translate(-0.84 -3.09)" style="fill:#fff"/><path d="M17.38,7.11v10H13.43V3.43H18.5a5.09,5.09,0,0,1,3.6,1.18A4.4,4.4,0,0,1,23.52,8a4.32,4.32,0,0,1-1.76,3.5L24,17.12H19.89L18,12.71V9.19h.31c.83,0,1.25-.37,1.25-1.11s-.48-1-1.44-1Z" transform="translate(-0.84 -3.09)" style="fill:#fff"/><path d="M29.6,3.43V17.12h-4V3.43Zm7.59,0-3.5,6.21,3.48,7.48H32.73l-3-7.56,3.41-6.13Z" transform="translate(-0.84 -3.09)" style="fill:#fff"/><path d="M41.92,9.72v2.66H37.46V9.72Z" transform="translate(-0.84 -3.09)" style="fill:#fff"/><path d="M52.53,10.43l4.14.11a8.38,8.38,0,0,1-2.23,5.11,6.41,6.41,0,0,1-4.74,1.81,6.65,6.65,0,0,1-5-2.05,7,7,0,0,1-2-5.09,7.07,7.07,0,0,1,2.05-5.15,6.74,6.74,0,0,1,5-2.08,6.54,6.54,0,0,1,4.91,2,8.15,8.15,0,0,1,1.93,4l-4.24.29A2.79,2.79,0,0,0,47.61,8a3.27,3.27,0,0,0-.82,2.3,3.13,3.13,0,0,0,.81,2.22,2.64,2.64,0,0,0,2,.88,2.69,2.69,0,0,0,2-.77A3.64,3.64,0,0,0,52.53,10.43Z" transform="translate(-0.84 -3.09)" style="fill:#fff"/><path d="M65.13,3.09A6.45,6.45,0,0,1,70,5.21a7.09,7.09,0,0,1,2,5.06,7,7,0,0,1-2,5.09,6.86,6.86,0,0,1-9.89,0,7,7,0,0,1-2-5.08,7,7,0,0,1,2.06-5.1A6.84,6.84,0,0,1,65.13,3.09Zm-.12,4A2.76,2.76,0,0,0,62.93,8a3.17,3.17,0,0,0-.85,2.23,3.14,3.14,0,0,0,.86,2.23,2.8,2.8,0,0,0,4.15,0,3.14,3.14,0,0,0,.85-2.23A3.14,3.14,0,0,0,67.09,8,2.74,2.74,0,0,0,65,7.12Z" transform="translate(-0.84 -3.09)" style="fill:#fff"/><path d="M73.87,17.12V8.23a5.15,5.15,0,0,1,1.36-3.74,4.81,4.81,0,0,1,3.62-1.4,4.31,4.31,0,0,1,3.44,1.36,5.76,5.76,0,0,1,1.2,3.92v8.75h-4V8.37c0-.83-.29-1.25-.87-1.25s-.84.42-.84,1.25v8.75Z" transform="translate(-0.84 -3.09)" style="fill:#fff"/><path d="M.84,25.79,2.7,21.14h.68l2,4.65H4.63l-.56-1.41h-2l-.53,1.41Zm1.39-1.91H3.87l-.5-1.29c-.16-.39-.27-.71-.35-1a5,5,0,0,1-.26.89Z" transform="translate(-0.84 -3.09)" style="fill:#fff"/><path d="M5.79,25.79V22.42h.54v.51a1.3,1.3,0,0,1,.38-.47.63.63,0,0,1,.38-.11,1.22,1.22,0,0,1,.61.18l-.21.53a.88.88,0,0,0-.43-.12.59.59,0,0,0-.57.42,2,2,0,0,0-.1.67v1.76Z" transform="translate(-0.84 -3.09)" style="fill:#fff"/><path d="M10.28,27.08V25.43a1,1,0,0,1-.38.31,1.12,1.12,0,0,1-.53.13,1.43,1.43,0,0,1-1.08-.48,1.84,1.84,0,0,1-.45-1.31A2.25,2.25,0,0,1,8,23.16a1.4,1.4,0,0,1,.54-.61,1.51,1.51,0,0,1,.76-.2,1.18,1.18,0,0,1,1,.52v-.45h.54v4.66Zm-1.83-3a1.42,1.42,0,0,0,.29,1,.85.85,0,0,0,.68.33.83.83,0,0,0,.65-.31,1.41,1.41,0,0,0,.27-.94,1.47,1.47,0,0,0-.29-1,.84.84,0,0,0-1.33,0A1.5,1.5,0,0,0,8.45,24.1Z" transform="translate(-0.84 -3.09)" style="fill:#fff"/><path d="M14.1,25.79V25.3a1.29,1.29,0,0,1-1.11.57,1.4,1.4,0,0,1-.58-.12,1,1,0,0,1-.4-.28,1.12,1.12,0,0,1-.18-.43,3.07,3.07,0,0,1,0-.53V22.42h.6v1.87a3.77,3.77,0,0,0,0,.6.64.64,0,0,0,.24.36.8.8,0,0,0,.45.13,1.06,1.06,0,0,0,.5-.13.72.72,0,0,0,.33-.36,1.66,1.66,0,0,0,.1-.66V22.42h.59v3.37Z" transform="translate(-0.84 -3.09)" style="fill:#fff"/><path d="M15.57,21.8v-.66h.59v.66Zm0,4V22.42h.59v3.37Z" transform="translate(-0.84 -3.09)" style="fill:#fff"/><path d="M18.36,25.28l.09.51a2.68,2.68,0,0,1-.45.05,1.1,1.1,0,0,1-.5-.1.57.57,0,0,1-.25-.26,1.87,1.87,0,0,1-.08-.67V22.87h-.43v-.45h.43v-.83l.59-.35v1.18h.6v.45h-.6v2a.9.9,0,0,0,0,.31.21.21,0,0,0,.1.11.37.37,0,0,0,.2,0A1.33,1.33,0,0,0,18.36,25.28Z" transform="translate(-0.84 -3.09)" style="fill:#fff"/><path d="M21.34,24.71l.61.07a1.41,1.41,0,0,1-.53.8,1.7,1.7,0,0,1-1,.29,1.64,1.64,0,0,1-1.22-.46,1.73,1.73,0,0,1-.45-1.27,1.82,1.82,0,0,1,.46-1.32,1.54,1.54,0,0,1,1.18-.47,1.52,1.52,0,0,1,1.15.46A1.74,1.74,0,0,1,22,24.1v.15H19.36a1.27,1.27,0,0,0,.32.85,1,1,0,0,0,.74.3.92.92,0,0,0,.55-.17A1,1,0,0,0,21.34,24.71Zm-1.95-.93h2a1.07,1.07,0,0,0-.23-.63.92.92,0,0,0-.73-.33.94.94,0,0,0-.69.26A1,1,0,0,0,19.39,23.78Z" transform="translate(-0.84 -3.09)" style="fill:#fff"/><path d="M25,24.56l.58.07a1.41,1.41,0,0,1-1.46,1.24A1.52,1.52,0,0,1,23,25.42a1.78,1.78,0,0,1-.44-1.3,2.25,2.25,0,0,1,.19-1,1.25,1.25,0,0,1,.57-.61,1.71,1.71,0,0,1,.84-.2,1.51,1.51,0,0,1,.93.27,1.25,1.25,0,0,1,.46.79l-.57.09a1,1,0,0,0-.29-.51.75.75,0,0,0-.51-.17,1,1,0,0,0-.73.3,1.43,1.43,0,0,0-.28,1,1.47,1.47,0,0,0,.27,1,.89.89,0,0,0,.71.31.84.84,0,0,0,.58-.21A1,1,0,0,0,25,24.56Z" transform="translate(-0.84 -3.09)" style="fill:#fff"/><path d="M27.37,25.28l.09.51a2.68,2.68,0,0,1-.45.05,1.13,1.13,0,0,1-.5-.1.57.57,0,0,1-.25-.26,1.94,1.94,0,0,1-.07-.67V22.87h-.44v-.45h.44v-.83l.59-.35v1.18h.59v.45h-.59v2a1,1,0,0,0,0,.31.21.21,0,0,0,.1.11.4.4,0,0,0,.2,0A1.28,1.28,0,0,0,27.37,25.28Z" transform="translate(-0.84 -3.09)" style="fill:#fff"/><path d="M30.25,25.79V25.3a1.29,1.29,0,0,1-1.11.57,1.4,1.4,0,0,1-.58-.12,1,1,0,0,1-.4-.28A1,1,0,0,1,28,25a2.3,2.3,0,0,1,0-.53V22.42h.6v1.87a3.77,3.77,0,0,0,0,.6.64.64,0,0,0,.24.36.8.8,0,0,0,.45.13,1.09,1.09,0,0,0,.5-.13.72.72,0,0,0,.33-.36,1.66,1.66,0,0,0,.1-.66V22.42h.59v3.37Z" transform="translate(-0.84 -3.09)" style="fill:#fff"/><path d="M31.71,25.79V22.42h.53v.51a1.41,1.41,0,0,1,.38-.47.63.63,0,0,1,.38-.11,1.22,1.22,0,0,1,.61.18l-.2.53a.91.91,0,0,0-.44-.12.54.54,0,0,0-.35.11.59.59,0,0,0-.22.31,2,2,0,0,0-.1.67v1.76Z" transform="translate(-0.84 -3.09)" style="fill:#fff"/><path d="M36.25,25.38a2.29,2.29,0,0,1-.64.38,2,2,0,0,1-.65.11,1.32,1.32,0,0,1-.89-.27.9.9,0,0,1-.31-.7.89.89,0,0,1,.12-.45,1,1,0,0,1,.31-.33,1.33,1.33,0,0,1,.42-.18l.53-.09a5.72,5.72,0,0,0,1.06-.2V23.5A.6.6,0,0,0,36,23a1,1,0,0,0-.67-.19,1.11,1.11,0,0,0-.62.14.89.89,0,0,0-.3.5l-.58-.08a1.48,1.48,0,0,1,.26-.58,1.28,1.28,0,0,1,.53-.34,2.69,2.69,0,0,1,.79-.11,2.1,2.1,0,0,1,.73.1,1,1,0,0,1,.42.25,1,1,0,0,1,.18.39,3.08,3.08,0,0,1,0,.53v.76a6.89,6.89,0,0,0,0,1,1,1,0,0,0,.15.4h-.62A1.23,1.23,0,0,1,36.25,25.38Zm0-1.28a4.27,4.27,0,0,1-1,.22,2.35,2.35,0,0,0-.52.11.48.48,0,0,0-.23.19.43.43,0,0,0-.08.27.5.5,0,0,0,.17.38.82.82,0,0,0,.53.15,1.34,1.34,0,0,0,.61-.14.89.89,0,0,0,.39-.4,1.24,1.24,0,0,0,.1-.57Z" transform="translate(-0.84 -3.09)" style="fill:#fff"/><path d="M39.57,27.09l-.06-.54a1.12,1.12,0,0,0,.34.05.68.68,0,0,0,.31-.06.49.49,0,0,0,.2-.18,4,4,0,0,0,.18-.42l.05-.14-1.33-3.38h.64l.73,1.95c.09.25.18.51.25.78a6.75,6.75,0,0,1,.25-.76l.75-2h.59l-1.33,3.43a6.93,6.93,0,0,1-.33.76,1.19,1.19,0,0,1-.37.42.85.85,0,0,1-.49.13A1.14,1.14,0,0,1,39.57,27.09Z" transform="translate(-0.84 -3.09)" style="fill:#fff"/><path d="M48.38,24.16l.64.16a2.06,2.06,0,0,1-.72,1.15,2,2,0,0,1-1.28.4,2.39,2.39,0,0,1-1.27-.3,1.94,1.94,0,0,1-.75-.89,3.07,3.07,0,0,1-.26-1.25A2.7,2.7,0,0,1,45,22.16a2,2,0,0,1,.82-.82A2.48,2.48,0,0,1,47,21.06a2,2,0,0,1,1.22.36,1.82,1.82,0,0,1,.69,1l-.63.14a1.48,1.48,0,0,0-.49-.74,1.3,1.3,0,0,0-.81-.23,1.61,1.61,0,0,0-.93.25,1.42,1.42,0,0,0-.52.69,2.51,2.51,0,0,0-.16.9,2.71,2.71,0,0,0,.18,1,1.33,1.33,0,0,0,.56.67,1.71,1.71,0,0,0,.82.22,1.43,1.43,0,0,0,.92-.3A1.59,1.59,0,0,0,48.38,24.16Z" transform="translate(-0.84 -3.09)" style="fill:#fff"/><path d="M49.51,24.11a1.7,1.7,0,0,1,.54-1.39,1.66,1.66,0,0,1,1.1-.37,1.59,1.59,0,0,1,1.18.45,1.67,1.67,0,0,1,.46,1.26,2.1,2.1,0,0,1-.2,1,1.38,1.38,0,0,1-.59.58,1.76,1.76,0,0,1-.85.21A1.6,1.6,0,0,1,50,25.41,1.75,1.75,0,0,1,49.51,24.11Zm.61,0a1.39,1.39,0,0,0,.3,1,1,1,0,0,0,.73.32,1,1,0,0,0,.74-.32,1.43,1.43,0,0,0,.29-1,1.4,1.4,0,0,0-.29-.95,1,1,0,0,0-.74-.32,1,1,0,0,0-.73.32A1.37,1.37,0,0,0,50.12,24.11Z" transform="translate(-0.84 -3.09)" style="fill:#fff"/><path d="M53.49,25.79V22.42H54v.48a1.28,1.28,0,0,1,1.12-.55,1.4,1.4,0,0,1,.58.11.87.87,0,0,1,.4.28,1,1,0,0,1,.18.42,2.49,2.49,0,0,1,0,.56v2.07h-.6V23.74a1.41,1.41,0,0,0-.07-.52.5.5,0,0,0-.24-.28.93.93,0,0,0-.42-.1,1,1,0,0,0-.65.23,1.14,1.14,0,0,0-.28.88v1.84Z" transform="translate(-0.84 -3.09)" style="fill:#fff"/><path d="M57,24.79l.59-.09a.78.78,0,0,0,.27.52,1,1,0,0,0,.63.18.93.93,0,0,0,.61-.16.48.48,0,0,0,.2-.38.33.33,0,0,0-.18-.3,2.6,2.6,0,0,0-.6-.2,5,5,0,0,1-.91-.27.86.86,0,0,1-.38-.32.81.81,0,0,1-.13-.45.78.78,0,0,1,.11-.42.88.88,0,0,1,.29-.32,1.52,1.52,0,0,1,.38-.17,2,2,0,0,1,.51-.06,2,2,0,0,1,.72.11,1,1,0,0,1,.46.31,1.18,1.18,0,0,1,.21.52l-.58.08A.65.65,0,0,0,59,23a.87.87,0,0,0-.54-.14,1,1,0,0,0-.58.13.35.35,0,0,0-.18.3.32.32,0,0,0,.08.2.47.47,0,0,0,.22.15l.53.15a8.28,8.28,0,0,1,.88.26,1,1,0,0,1,.39.3.86.86,0,0,1,.14.49,1,1,0,0,1-.17.54,1.15,1.15,0,0,1-.5.39,2,2,0,0,1-.74.14,1.7,1.7,0,0,1-1-.27A1.32,1.32,0,0,1,57,24.79Z" transform="translate(-0.84 -3.09)" style="fill:#fff"/><path d="M61.92,25.28l.09.51a2.68,2.68,0,0,1-.45.05,1.1,1.1,0,0,1-.5-.1.57.57,0,0,1-.25-.26,1.87,1.87,0,0,1-.08-.67V22.87H60.3v-.45h.43v-.83l.59-.35v1.18h.6v.45h-.6v2a.9.9,0,0,0,0,.31.21.21,0,0,0,.1.11.37.37,0,0,0,.2,0A1.33,1.33,0,0,0,61.92,25.28Z" transform="translate(-0.84 -3.09)" style="fill:#fff"/><path d="M62.5,25.79V22.42H63v.51a1.41,1.41,0,0,1,.38-.47.63.63,0,0,1,.38-.11,1.22,1.22,0,0,1,.61.18l-.21.53a.88.88,0,0,0-.43-.12.54.54,0,0,0-.35.11.59.59,0,0,0-.22.31,2,2,0,0,0-.1.67v1.76Z" transform="translate(-0.84 -3.09)" style="fill:#fff"/><path d="M67.05,25.79V25.3a1.29,1.29,0,0,1-1.11.57,1.4,1.4,0,0,1-.58-.12,1,1,0,0,1-.4-.28,1,1,0,0,1-.18-.43,2.3,2.3,0,0,1,0-.53V22.42h.59v1.87a3.41,3.41,0,0,0,0,.6.64.64,0,0,0,.24.36.8.8,0,0,0,.45.13,1.13,1.13,0,0,0,.5-.13.82.82,0,0,0,.33-.36,1.87,1.87,0,0,0,.1-.66V22.42h.59v3.37Z" transform="translate(-0.84 -3.09)" style="fill:#fff"/><path d="M70.8,24.56l.58.07a1.43,1.43,0,0,1-.49.91,1.46,1.46,0,0,1-1,.33,1.52,1.52,0,0,1-1.15-.45,1.78,1.78,0,0,1-.44-1.3,2.25,2.25,0,0,1,.19-1,1.25,1.25,0,0,1,.57-.61,1.71,1.71,0,0,1,.84-.2,1.51,1.51,0,0,1,.93.27,1.25,1.25,0,0,1,.46.79l-.57.09a.92.92,0,0,0-.3-.51.72.72,0,0,0-.5-.17,1,1,0,0,0-.73.3,1.43,1.43,0,0,0-.28,1,1.47,1.47,0,0,0,.27,1,.88.88,0,0,0,.71.31.84.84,0,0,0,.58-.21A1,1,0,0,0,70.8,24.56Z" transform="translate(-0.84 -3.09)" style="fill:#fff"/><path d="M74.17,24.56l.59.07a1.48,1.48,0,0,1-.49.91,1.46,1.46,0,0,1-1,.33,1.56,1.56,0,0,1-1.16-.45,1.82,1.82,0,0,1-.43-1.3,2.25,2.25,0,0,1,.19-1,1.25,1.25,0,0,1,.57-.61,1.67,1.67,0,0,1,.83-.2,1.54,1.54,0,0,1,.94.27,1.29,1.29,0,0,1,.46.79l-.58.09a.86.86,0,0,0-.29-.51.74.74,0,0,0-.5-.17.94.94,0,0,0-.73.3,1.43,1.43,0,0,0-.28,1,1.47,1.47,0,0,0,.27,1,.87.87,0,0,0,.7.31.85.85,0,0,0,.59-.21A1,1,0,0,0,74.17,24.56Z" transform="translate(-0.84 -3.09)" style="fill:#fff"/><path d="M75.27,21.8v-.66h.59v.66Zm0,4V22.42h.59v3.37Z" transform="translate(-0.84 -3.09)" style="fill:#fff"/><path d="M76.55,24.11a1.7,1.7,0,0,1,.54-1.39,1.66,1.66,0,0,1,1.1-.37,1.62,1.62,0,0,1,1.18.45,1.67,1.67,0,0,1,.46,1.26,2.22,2.22,0,0,1-.2,1,1.5,1.5,0,0,1-.59.58,1.76,1.76,0,0,1-.85.21A1.58,1.58,0,0,1,77,25.41,1.75,1.75,0,0,1,76.55,24.11Zm.61,0a1.39,1.39,0,0,0,.29,1,1,1,0,0,0,.74.32,1,1,0,0,0,.73-.32,1.43,1.43,0,0,0,.3-1,1.35,1.35,0,0,0-.3-.95,1,1,0,0,0-.73-.32,1,1,0,0,0-.74.32A1.37,1.37,0,0,0,77.16,24.11Zm.7-2.11.44-.89h.78l-.73.89Z" transform="translate(-0.84 -3.09)" style="fill:#fff"/><path d="M80.52,25.79V22.42h.54v.48a1.27,1.27,0,0,1,1.11-.55,1.44,1.44,0,0,1,.59.11.84.84,0,0,1,.39.28,1.15,1.15,0,0,1,.19.42,3.6,3.6,0,0,1,0,.56v2.07h-.59V23.74a1.66,1.66,0,0,0-.07-.52.57.57,0,0,0-.25-.28.89.89,0,0,0-.41-.1,1,1,0,0,0-.66.23,1.14,1.14,0,0,0-.27.88v1.84Z" transform="translate(-0.84 -3.09)" style="fill:#fff"/></g></g></svg>