<?xml version="1.0" encoding="utf-8"?>
<!-- Generator: Adobe Illustrator 21.0.0, SVG Export Plug-In . SVG Version: 6.00 Build 0)  -->
<svg version="1.1" id="Layer_1" xmlns="http://www.w3.org/2000/svg" xmlns:xlink="http://www.w3.org/1999/xlink" x="0px" y="0px"
	 viewBox="0 0 21.1 19.8" style="enable-background:new 0 0 21.1 19.8;" xml:space="preserve">
<style type="text/css">
	.st0{clip-path:url(#SVGID_2_);fill:none;stroke:#000000;stroke-width:1.2;stroke-miterlimit:10;}
</style>
<g>
	<defs>
		<rect id="SVGID_1_" x="0" width="21.1" height="19.8"/>
	</defs>
	<clipPath id="SVGID_2_">
		<use xlink:href="#SVGID_1_"  style="overflow:visible;"/>
	</clipPath>
	<path class="st0" d="M15,19.2c-0.4,0-0.7,0-0.9-0.1l-0.1,0c-1.3-0.4-4.9-1.3-7.3-3.6C4.1,13.1,2.2,10.7,1.4,9
		C0.5,7,0.6,5.7,0.6,5.3c0.1-0.9,0.5-3.2,2.2-4.3C3.1,0.8,3.6,0.6,4,0.6l1.6,0C6,0.7,6.5,1,6.8,1.6C7,2,8.2,4.9,8.3,5.1
		c0.3,0.8,0.3,1.5-0.2,2.1c-0.3,0.4-0.8,1-1.1,1.3c0.3,0.4,1.1,1.7,2.2,2.7c1.2,1,2.6,1.8,3.2,2c0,0,0.1,0,0.1,0c0,0,0-0.1,0.1-0.1
		l0.1-0.1c0.3-0.4,1.2-1.5,1.2-1.5c0.2-0.2,0.6-0.6,1.2-0.6c0.2,0,0.5,0.1,0.7,0.2c0.6,0.3,3.1,1.5,3.5,1.7c0.5,0.1,0.9,0.6,1,1.2
		l0,0.1c0,0.5,0.2,2-1.1,3.3C18.3,18.6,16.4,19.2,15,19.2z"/>
</g>
</svg>
